<mxfile host="app.diagrams.net" modified="2022-05-14T07:37:41.718Z" agent="5.0 (Windows)" etag="RKUm1oW-sc4sQXGcfRcS" version="18.0.3" type="github">
  <diagram name="Page-1" id="e56a1550-8fbb-45ad-956c-1786394a9013">
    <mxGraphModel dx="1224" dy="1133" grid="1" gridSize="10" guides="1" tooltips="1" connect="1" arrows="1" fold="1" page="1" pageScale="1" pageWidth="1100" pageHeight="850" background="none" math="0" shadow="0">
      <root>
        <mxCell id="0" />
        <mxCell id="1" parent="0" />
        <mxCell id="KNJN6KZbM13AAgNAfZqh-1" value="" style="rounded=1;whiteSpace=wrap;html=1;" vertex="1" parent="1">
          <mxGeometry x="200" y="40" width="760" height="240" as="geometry" />
        </mxCell>
        <mxCell id="KNJN6KZbM13AAgNAfZqh-2" value="" style="rounded=1;whiteSpace=wrap;html=1;" vertex="1" parent="1">
          <mxGeometry x="200" y="360" width="760" height="320" as="geometry" />
        </mxCell>
        <mxCell id="KNJN6KZbM13AAgNAfZqh-3" value="" style="shape=cylinder3;whiteSpace=wrap;html=1;boundedLbl=1;backgroundOutline=1;size=15;" vertex="1" parent="1">
          <mxGeometry x="490" y="730" width="120" height="120" as="geometry" />
        </mxCell>
        <mxCell id="KNJN6KZbM13AAgNAfZqh-4" value="Client" style="text;html=1;strokeColor=none;fillColor=none;align=center;verticalAlign=middle;whiteSpace=wrap;rounded=0;" vertex="1" parent="1">
          <mxGeometry x="220" y="60" width="60" height="30" as="geometry" />
        </mxCell>
        <mxCell id="KNJN6KZbM13AAgNAfZqh-5" value="Rest Backend" style="text;html=1;strokeColor=none;fillColor=none;align=center;verticalAlign=middle;whiteSpace=wrap;rounded=0;" vertex="1" parent="1">
          <mxGeometry x="220" y="380" width="60" height="30" as="geometry" />
        </mxCell>
        <mxCell id="KNJN6KZbM13AAgNAfZqh-6" value="" style="endArrow=classic;startArrow=classic;html=1;rounded=0;exitX=0.5;exitY=0;exitDx=0;exitDy=0;exitPerimeter=0;entryX=0.5;entryY=1;entryDx=0;entryDy=0;" edge="1" parent="1" source="KNJN6KZbM13AAgNAfZqh-3" target="KNJN6KZbM13AAgNAfZqh-13">
          <mxGeometry width="50" height="50" relative="1" as="geometry">
            <mxPoint x="520" y="610" as="sourcePoint" />
            <mxPoint x="550" y="600" as="targetPoint" />
          </mxGeometry>
        </mxCell>
        <mxCell id="KNJN6KZbM13AAgNAfZqh-7" value="Datbase" style="text;html=1;strokeColor=none;fillColor=none;align=center;verticalAlign=middle;whiteSpace=wrap;rounded=0;" vertex="1" parent="1">
          <mxGeometry x="520" y="775" width="60" height="30" as="geometry" />
        </mxCell>
        <mxCell id="KNJN6KZbM13AAgNAfZqh-8" value="" style="rounded=0;whiteSpace=wrap;html=1;" vertex="1" parent="1">
          <mxGeometry x="380" y="70" width="120" height="60" as="geometry" />
        </mxCell>
        <mxCell id="KNJN6KZbM13AAgNAfZqh-9" value="" style="rounded=0;whiteSpace=wrap;html=1;" vertex="1" parent="1">
          <mxGeometry x="590" y="70" width="120" height="60" as="geometry" />
        </mxCell>
        <mxCell id="KNJN6KZbM13AAgNAfZqh-10" value="" style="rounded=0;whiteSpace=wrap;html=1;" vertex="1" parent="1">
          <mxGeometry x="490" y="175" width="120" height="60" as="geometry" />
        </mxCell>
        <mxCell id="KNJN6KZbM13AAgNAfZqh-11" value="" style="rounded=0;whiteSpace=wrap;html=1;" vertex="1" parent="1">
          <mxGeometry x="490" y="395" width="120" height="60" as="geometry" />
        </mxCell>
        <mxCell id="KNJN6KZbM13AAgNAfZqh-12" value="" style="rounded=0;whiteSpace=wrap;html=1;" vertex="1" parent="1">
          <mxGeometry x="490" y="490" width="120" height="60" as="geometry" />
        </mxCell>
        <mxCell id="KNJN6KZbM13AAgNAfZqh-13" value="" style="rounded=0;whiteSpace=wrap;html=1;" vertex="1" parent="1">
          <mxGeometry x="490" y="590" width="120" height="60" as="geometry" />
        </mxCell>
        <mxCell id="KNJN6KZbM13AAgNAfZqh-14" value="View" style="text;html=1;strokeColor=none;fillColor=none;align=center;verticalAlign=middle;whiteSpace=wrap;rounded=0;" vertex="1" parent="1">
          <mxGeometry x="410" y="85" width="60" height="30" as="geometry" />
        </mxCell>
        <mxCell id="KNJN6KZbM13AAgNAfZqh-15" value="Controler" style="text;html=1;strokeColor=none;fillColor=none;align=center;verticalAlign=middle;whiteSpace=wrap;rounded=0;" vertex="1" parent="1">
          <mxGeometry x="620" y="85" width="60" height="30" as="geometry" />
        </mxCell>
        <mxCell id="KNJN6KZbM13AAgNAfZqh-16" value="Services" style="text;html=1;strokeColor=none;fillColor=none;align=center;verticalAlign=middle;whiteSpace=wrap;rounded=0;" vertex="1" parent="1">
          <mxGeometry x="520" y="190" width="60" height="30" as="geometry" />
        </mxCell>
        <mxCell id="KNJN6KZbM13AAgNAfZqh-17" value="Endpoints" style="text;html=1;strokeColor=none;fillColor=none;align=center;verticalAlign=middle;whiteSpace=wrap;rounded=0;" vertex="1" parent="1">
          <mxGeometry x="520" y="410" width="60" height="30" as="geometry" />
        </mxCell>
        <mxCell id="KNJN6KZbM13AAgNAfZqh-18" value="Logic" style="text;html=1;strokeColor=none;fillColor=none;align=center;verticalAlign=middle;whiteSpace=wrap;rounded=0;" vertex="1" parent="1">
          <mxGeometry x="520" y="505" width="60" height="30" as="geometry" />
        </mxCell>
        <mxCell id="KNJN6KZbM13AAgNAfZqh-19" value="Data access" style="text;html=1;strokeColor=none;fillColor=none;align=center;verticalAlign=middle;whiteSpace=wrap;rounded=0;" vertex="1" parent="1">
          <mxGeometry x="520" y="605" width="60" height="30" as="geometry" />
        </mxCell>
        <mxCell id="KNJN6KZbM13AAgNAfZqh-22" value="" style="endArrow=classic;startArrow=classic;html=1;rounded=0;entryX=0;entryY=0.5;entryDx=0;entryDy=0;exitX=1;exitY=0.5;exitDx=0;exitDy=0;" edge="1" parent="1" source="KNJN6KZbM13AAgNAfZqh-8" target="KNJN6KZbM13AAgNAfZqh-9">
          <mxGeometry width="50" height="50" relative="1" as="geometry">
            <mxPoint x="520" y="125" as="sourcePoint" />
            <mxPoint x="570" y="75" as="targetPoint" />
          </mxGeometry>
        </mxCell>
        <mxCell id="KNJN6KZbM13AAgNAfZqh-24" value="" style="endArrow=classic;startArrow=classic;html=1;rounded=0;entryX=0.5;entryY=1;entryDx=0;entryDy=0;exitX=0.5;exitY=0;exitDx=0;exitDy=0;" edge="1" parent="1" source="KNJN6KZbM13AAgNAfZqh-11" target="KNJN6KZbM13AAgNAfZqh-10">
          <mxGeometry width="50" height="50" relative="1" as="geometry">
            <mxPoint x="520" y="350" as="sourcePoint" />
            <mxPoint x="570" y="300" as="targetPoint" />
            <Array as="points">
              <mxPoint x="200" y="320" />
            </Array>
          </mxGeometry>
        </mxCell>
        <mxCell id="KNJN6KZbM13AAgNAfZqh-26" value="" style="endArrow=classic;startArrow=classic;html=1;rounded=0;entryX=0.2;entryY=1.05;entryDx=0;entryDy=0;entryPerimeter=0;exitX=0.5;exitY=0;exitDx=0;exitDy=0;" edge="1" parent="1" source="KNJN6KZbM13AAgNAfZqh-10" target="KNJN6KZbM13AAgNAfZqh-9">
          <mxGeometry width="50" height="50" relative="1" as="geometry">
            <mxPoint x="570" y="175" as="sourcePoint" />
            <mxPoint x="620" y="125" as="targetPoint" />
          </mxGeometry>
        </mxCell>
        <mxCell id="KNJN6KZbM13AAgNAfZqh-27" value="&lt;div&gt;HTTPS&lt;/div&gt;" style="text;html=1;strokeColor=none;fillColor=none;align=center;verticalAlign=middle;whiteSpace=wrap;rounded=0;" vertex="1" parent="1">
          <mxGeometry x="290" y="305" width="60" height="30" as="geometry" />
        </mxCell>
        <mxCell id="KNJN6KZbM13AAgNAfZqh-28" value="" style="endArrow=classic;startArrow=classic;html=1;rounded=0;exitX=0.5;exitY=0;exitDx=0;exitDy=0;entryX=0.5;entryY=1;entryDx=0;entryDy=0;" edge="1" parent="1" source="KNJN6KZbM13AAgNAfZqh-12" target="KNJN6KZbM13AAgNAfZqh-11">
          <mxGeometry width="50" height="50" relative="1" as="geometry">
            <mxPoint x="500" y="505" as="sourcePoint" />
            <mxPoint x="550" y="455" as="targetPoint" />
          </mxGeometry>
        </mxCell>
        <mxCell id="KNJN6KZbM13AAgNAfZqh-29" value="" style="endArrow=classic;startArrow=classic;html=1;rounded=0;exitX=0.5;exitY=1;exitDx=0;exitDy=0;entryX=0.5;entryY=0;entryDx=0;entryDy=0;" edge="1" parent="1" source="KNJN6KZbM13AAgNAfZqh-12" target="KNJN6KZbM13AAgNAfZqh-13">
          <mxGeometry width="50" height="50" relative="1" as="geometry">
            <mxPoint x="520" y="610" as="sourcePoint" />
            <mxPoint x="570" y="560" as="targetPoint" />
          </mxGeometry>
        </mxCell>
        <mxCell id="KNJN6KZbM13AAgNAfZqh-30" value="cors and headers" style="rounded=0;whiteSpace=wrap;html=1;" vertex="1" parent="1">
          <mxGeometry x="10" y="280" width="190" height="80" as="geometry" />
        </mxCell>
        <mxCell id="KNJN6KZbM13AAgNAfZqh-31" value="Security" style="text;html=1;strokeColor=none;fillColor=none;align=center;verticalAlign=middle;whiteSpace=wrap;rounded=0;" vertex="1" parent="1">
          <mxGeometry x="10" y="280" width="60" height="30" as="geometry" />
        </mxCell>
        <mxCell id="KNJN6KZbM13AAgNAfZqh-34" value="&lt;h3 id=&quot;25inputvalidation&quot;&gt;&lt;span style=&quot;font-weight: normal;&quot;&gt;Input Validation&lt;/span&gt;&lt;/h3&gt;" style="text;html=1;strokeColor=none;fillColor=none;align=center;verticalAlign=middle;whiteSpace=wrap;rounded=0;" vertex="1" parent="1">
          <mxGeometry x="350" y="240" width="60" height="30" as="geometry" />
        </mxCell>
      </root>
    </mxGraphModel>
  </diagram>
</mxfile>
